<svg width="49" height="49" viewBox="0 0 49 49" fill="none" xmlns="http://www.w3.org/2000/svg">
<g clip-path="url(#clip0_1_603)">
<path d="M7.5 6.375H12.5" stroke="#3483FA" stroke-miterlimit="10" stroke-linecap="square"/>
<path d="M5.5 43.375H43.5C45.157 43.375 46.5 42.032 46.5 40.375V14.375C46.5 12.718 45.157 11.375 43.5 11.375H35.5L31.501 5.375H21.5L17.5 11.375H5.5C3.843 11.375 2.5 12.718 2.5 14.375V40.375C2.5 42.032 3.843 43.375 5.5 43.375Z" stroke="#3483FA" stroke-miterlimit="10" stroke-linecap="square"/>
<path d="M26.5 37.375C32.0228 37.375 36.5 32.8978 36.5 27.375C36.5 21.8522 32.0228 17.375 26.5 17.375C20.9772 17.375 16.5 21.8522 16.5 27.375C16.5 32.8978 20.9772 37.375 26.5 37.375Z" stroke="#3483FA" stroke-miterlimit="10" stroke-linecap="square"/>
<path d="M10.5 20.375C11.0523 20.375 11.5 19.9273 11.5 19.375C11.5 18.8227 11.0523 18.375 10.5 18.375C9.94772 18.375 9.5 18.8227 9.5 19.375C9.5 19.9273 9.94772 20.375 10.5 20.375Z" stroke="#3483FA" stroke-miterlimit="10" stroke-linecap="square"/>
<path d="M10.5 20.375C11.0523 20.375 11.5 19.9273 11.5 19.375C11.5 18.8227 11.0523 18.375 10.5 18.375C9.94772 18.375 9.5 18.8227 9.5 19.375C9.5 19.9273 9.94772 20.375 10.5 20.375Z" fill="#3483FA"/>
</g>
<defs>
<clipPath id="clip0_1_603">
<rect width="48" height="48" fill="white" transform="translate(0.5 0.375)"/>
</clipPath>
</defs>
</svg>
