<svg width="49" height="49" viewBox="0 0 49 49" fill="none" xmlns="http://www.w3.org/2000/svg">
<g clip-path="url(#clip0_1_436)">
<path d="M42.5 20.375L40.731 7.111C40.599 6.117 39.751 5.375 38.749 5.375H10.251C9.249 5.375 8.401 6.117 8.269 7.111L6.5 20.375" stroke="#3483FA" stroke-miterlimit="10"/>
<path d="M14.5 37.375V43.375H5.5V37.375" stroke="#3483FA" stroke-miterlimit="10" stroke-linecap="square"/>
<path d="M43.5 37.375V43.375H34.5V37.375" stroke="#3483FA" stroke-miterlimit="10" stroke-linecap="square"/>
<path d="M46.5 37.375H2.5V26.778C2.5 25.87 2.809 24.988 3.377 24.279L6.5 20.375H42.5L45.623 24.279C46.191 24.989 46.5 25.87 46.5 26.778V37.375Z" stroke="#3483FA" stroke-miterlimit="10" stroke-linecap="square"/>
<path d="M38.5 32.375C40.1569 32.375 41.5 31.0319 41.5 29.375C41.5 27.7181 40.1569 26.375 38.5 26.375C36.8431 26.375 35.5 27.7181 35.5 29.375C35.5 31.0319 36.8431 32.375 38.5 32.375Z" stroke="#3483FA" stroke-miterlimit="10" stroke-linecap="square"/>
<path d="M10.5 32.375C12.1569 32.375 13.5 31.0319 13.5 29.375C13.5 27.7181 12.1569 26.375 10.5 26.375C8.84315 26.375 7.5 27.7181 7.5 29.375C7.5 31.0319 8.84315 32.375 10.5 32.375Z" stroke="#3483FA" stroke-miterlimit="10" stroke-linecap="square"/>
<path d="M21.5 29.375H27.5" stroke="#3483FA" stroke-miterlimit="10" stroke-linecap="square"/>
</g>
<defs>
<clipPath id="clip0_1_436">
<rect width="48" height="48" fill="white" transform="translate(0.5 0.375)"/>
</clipPath>
</defs>
</svg>
