<svg width="48" height="49" viewBox="0 0 48 49" fill="none" xmlns="http://www.w3.org/2000/svg">
<g clip-path="url(#clip0_1_53)">
<path fill-rule="evenodd" clip-rule="evenodd" d="M24 48C36.9787 48 47.5 37.4787 47.5 24.5C47.5 11.5213 36.9787 1 24 1C11.0213 1 0.5 11.5213 0.5 24.5C0.5 37.4787 11.0213 48 24 48Z" stroke="#EEEEEE"/>
<path fill-rule="evenodd" clip-rule="evenodd" d="M14 25C14 24.7236 14.2251 24.5 14.5 24.5H17.5C17.7768 24.5 18 24.7217 18 25C18 25.2759 17.7744 25.5 17.5 25.5H14.5C14.2232 25.5 14 25.2779 14 25Z" fill="white"/>
<path fill-rule="evenodd" clip-rule="evenodd" d="M19 25C19 24.7236 19.2251 24.5 19.5 24.5H22.5C22.7764 24.5 23 24.7217 23 25C23 25.2759 22.7744 25.5 22.5 25.5H19.5C19.2232 25.5 19 25.2779 19 25Z" fill="white"/>
<path fill-rule="evenodd" clip-rule="evenodd" d="M24 25C24 24.7236 24.2256 24.5 24.5 24.5H27.5C27.7764 24.5 28 24.7217 28 25C28 25.2759 27.7744 25.5 27.5 25.5H24.5C24.2232 25.5 24 25.2779 24 25Z" fill="white"/>
<path fill-rule="evenodd" clip-rule="evenodd" d="M30 25C30 24.7236 30.2256 24.5 30.5 24.5H33.5C33.7768 24.5 34 24.7217 34 25C34 25.2759 33.7744 25.5 33.5 25.5H30.5C30.2232 25.5 30 25.2779 30 25Z" fill="white"/>
<path fill-rule="evenodd" clip-rule="evenodd" d="M13.584 16.5H34.416C35.2908 16.5 36 17.2092 36 18.084V30.916C36 31.7908 35.2908 32.5 34.416 32.5H13.584C12.7092 32.5 12 31.7908 12 30.916V18.084C12 17.2092 12.7092 16.5 13.584 16.5Z" fill="#5697FA"/>
<path d="M36 19.5H12V22.5H36V19.5Z" fill="#0864EE"/>
<path d="M34 23.5H14V26.5H34V23.5Z" fill="white"/>
<path d="M23.5 29.5H14.5C14.2239 29.5 14 29.7239 14 30C14 30.2761 14.2239 30.5 14.5 30.5H23.5C23.7761 30.5 24 30.2761 24 30C24 29.7239 23.7761 29.5 23.5 29.5Z" fill="#0864EE"/>
<path d="M28.5 27.5H14.5C14.2239 27.5 14 27.7239 14 28C14 28.2761 14.2239 28.5 14.5 28.5H28.5C28.7761 28.5 29 28.2761 29 28C29 27.7239 28.7761 27.5 28.5 27.5Z" fill="#0864EE"/>
</g>
<defs>
<clipPath id="clip0_1_53">
<rect width="48" height="48" fill="white" transform="translate(0 0.5)"/>
</clipPath>
</defs>
</svg>
