<svg width="49" height="49" viewBox="0 0 49 49" fill="none" xmlns="http://www.w3.org/2000/svg">
<g clip-path="url(#clip0_1_571)">
<path d="M46.5 2.375H2.5V46.375H46.5V2.375Z" stroke="#3483FA" stroke-miterlimit="10" stroke-linecap="square"/>
<path d="M39.5 18.375H9.5V39.375H39.5V18.375Z" stroke="#3483FA" stroke-miterlimit="10" stroke-linecap="square"/>
<path d="M30.5 26.375V28.375H18.5V26.375" stroke="#3483FA" stroke-miterlimit="10" stroke-linecap="square"/>
<path d="M24.5 12.375C25.6046 12.375 26.5 11.4796 26.5 10.375C26.5 9.27043 25.6046 8.375 24.5 8.375C23.3954 8.375 22.5 9.27043 22.5 10.375C22.5 11.4796 23.3954 12.375 24.5 12.375Z" stroke="#3483FA" stroke-miterlimit="10" stroke-linecap="square"/>
<path d="M11.5 12.375C12.6046 12.375 13.5 11.4796 13.5 10.375C13.5 9.27043 12.6046 8.375 11.5 8.375C10.3954 8.375 9.5 9.27043 9.5 10.375C9.5 11.4796 10.3954 12.375 11.5 12.375Z" stroke="#3483FA" stroke-miterlimit="10" stroke-linecap="square"/>
<path d="M37.5 12.375C38.6046 12.375 39.5 11.4796 39.5 10.375C39.5 9.27043 38.6046 8.375 37.5 8.375C36.3954 8.375 35.5 9.27043 35.5 10.375C35.5 11.4796 36.3954 12.375 37.5 12.375Z" stroke="#3483FA" stroke-miterlimit="10" stroke-linecap="square"/>
</g>
<defs>
<clipPath id="clip0_1_571">
<rect width="48" height="48" fill="white" transform="translate(0.5 0.375)"/>
</clipPath>
</defs>
</svg>
