<svg width="49" height="49" viewBox="0 0 49 49" fill="none" xmlns="http://www.w3.org/2000/svg">
<g clip-path="url(#clip0_1_513)">
<path d="M8.5 46.375V42.375" stroke="#3483FA" stroke-miterlimit="10" stroke-linecap="square"/>
<path d="M40.5 46.375V42.375" stroke="#3483FA" stroke-miterlimit="10" stroke-linecap="square"/>
<path d="M40.5 23.475V6.375C40.5 4.175 38.7 2.375 36.5 2.375H12.5C10.3 2.375 8.5 4.175 8.5 6.375V23.475" stroke="#3483FA" stroke-miterlimit="10"/>
<path d="M46.5 42.375V28.375C46.5 25.575 44.3 23.375 41.5 23.375C38.7 23.375 36.5 25.575 36.5 28.375V32.375H12.5V28.375C12.5 25.575 10.3 23.375 7.5 23.375C4.7 23.375 2.5 25.575 2.5 28.375V42.375H46.5Z" stroke="#3483FA" stroke-miterlimit="10" stroke-linecap="square"/>
</g>
<defs>
<clipPath id="clip0_1_513">
<rect width="48" height="48" fill="white" transform="translate(0.5 0.375)"/>
</clipPath>
</defs>
</svg>
