<svg width="49" height="49" viewBox="0 0 49 49" fill="none" xmlns="http://www.w3.org/2000/svg">
<g clip-path="url(#clip0_1_95)">
<path fill-rule="evenodd" clip-rule="evenodd" d="M24.3125 48C37.2912 48 47.8125 37.4787 47.8125 24.5C47.8125 11.5213 37.2912 1 24.3125 1C11.3338 1 0.8125 11.5213 0.8125 24.5C0.8125 37.4787 11.3338 48 24.3125 48Z" stroke="#EEEEEE"/>
<path fill-rule="evenodd" clip-rule="evenodd" d="M20.1785 12.2717L35.5333 27.6266L26.0842 37.0757L10.7294 21.7209L20.1785 12.2717Z" fill="#5697FA"/>
<path fill-rule="evenodd" clip-rule="evenodd" d="M14.6046 20.2079L18.6655 16.147C18.9767 16.6563 19.5379 16.9963 20.1785 16.9963C20.8191 16.9963 21.3803 16.6563 21.6915 16.147L31.6581 26.1136C31.1487 26.4248 30.8088 26.986 30.8088 27.6266C30.8088 28.2671 31.1487 28.8283 31.6581 29.1395L27.5972 33.2005C27.286 32.6911 26.7248 32.3511 26.0842 32.3511C25.4436 32.3511 24.8824 32.6911 24.5713 33.2005L14.6046 23.2338C15.114 22.9226 15.4539 22.3614 15.4539 21.7209C15.4539 21.0803 15.114 20.5191 14.6046 20.2079Z" fill="white"/>
<path d="M23.1314 28.8077C25.4145 28.8077 27.2654 26.9569 27.2654 24.6737C27.2654 22.3906 25.4145 20.5397 23.1314 20.5397C20.8482 20.5397 18.9974 22.3906 18.9974 24.6737C18.9974 26.9569 20.8482 28.8077 23.1314 28.8077Z" fill="#3483FA"/>
<path fill-rule="evenodd" clip-rule="evenodd" d="M21.2521 26.1395L20.9877 26.4039C20.771 26.6206 20.8989 27.0215 21.3301 27.0172C21.3472 27.0167 21.3635 27.0097 21.3757 26.9977L21.7332 26.6401C22.4268 27.1927 23.2048 27.2144 23.7271 26.6921C24.2494 26.1698 24.2451 25.5348 23.6816 24.5964L23.4042 24.1196C23.1571 23.6341 23.2048 23.4478 23.3803 23.2722C23.5559 23.0967 23.8766 23.088 24.1757 23.3329C24.212 23.3629 24.2467 23.3948 24.2797 23.4283C24.3668 23.5187 24.4418 23.6199 24.503 23.7295C24.6246 23.9479 24.7178 24.181 24.7804 24.423C24.7978 24.5045 24.8376 24.5796 24.8952 24.6397C25.0638 24.8049 25.3335 24.8049 25.5021 24.6397C25.6172 24.5272 25.6561 24.3578 25.6018 24.2063C25.5223 23.8457 25.3647 23.5069 25.1401 23.2137L25.4739 22.88C25.4859 22.8678 25.4929 22.8515 25.4934 22.8344C25.4934 22.401 25.086 22.284 24.8801 22.492L24.6633 22.7087C23.9872 22.1561 23.2221 22.1323 22.7128 22.6524C22.2035 23.1725 22.1884 23.788 22.7432 24.7351L23.0293 25.2032C23.2872 25.6952 23.246 25.8946 23.0574 26.0701C22.8407 26.2868 22.5503 26.263 22.2339 26.0094C22.2339 26.0094 22.1927 25.9726 22.1342 25.9141C22.0423 25.823 21.9582 25.7244 21.8828 25.6193C21.6898 25.3124 21.5608 24.9696 21.5035 24.6116C21.499 24.4393 21.3929 24.2861 21.2332 24.2213C21.0736 24.1565 20.8907 24.1924 20.7674 24.3128C20.6441 24.4332 20.6039 24.6151 20.6648 24.7763C20.7428 25.2728 20.9448 25.7417 21.2521 26.1395Z" fill="white"/>
<path fill-rule="evenodd" clip-rule="evenodd" d="M30.3125 17.5L29.0094 16.284C27.3939 14.7765 24.8173 14.8213 23.2524 16.3861L20.1785 19.4601C21.4832 20.7647 24.3125 20.0506 24.3125 20.0506L26.0842 18.2789L34.2625 26.5H37.3125V17.5H30.3125Z" fill="#0864EE"/>
<path d="M16.7141 23.1264C17.0605 22.78 17.5141 22.6067 17.9679 22.6067C18.3896 22.6067 18.8109 22.7564 19.147 23.0558C19.768 23.7524 19.7452 24.8201 19.0764 25.4887L16.8594 27.706C16.1909 28.3742 15.1231 28.3987 14.4257 27.7754C13.8056 27.0791 13.8286 26.0119 14.4971 25.3437L16.7141 23.1264ZM19.0764 25.4887C19.4228 25.1423 19.8766 24.969 20.3305 24.969C20.7519 24.969 21.1732 25.1184 21.509 25.4181C22.1303 26.1144 22.1075 27.1824 21.4387 27.851L19.2217 30.0683C18.5535 30.7362 17.4866 30.761 16.7888 30.1385C16.1679 29.4425 16.1906 28.3745 16.8594 27.706L19.0764 25.4887ZM21.4387 27.851C21.7851 27.5046 22.2386 27.3313 22.6925 27.3313C23.1144 27.3313 23.5364 27.4813 23.8724 27.7816C24.4925 28.4778 24.4695 29.5447 23.801 30.2132L21.584 32.4305C20.9157 33.0985 19.8489 33.1233 19.1511 32.5008C18.5301 31.8048 18.5529 30.7368 19.2217 30.0683L21.4387 27.851ZM23.801 30.2132C24.1473 29.8669 24.6012 29.6935 25.0548 29.6935C25.4767 29.6935 25.8987 29.8435 26.2347 30.1438C26.8548 30.8401 26.8315 31.907 26.1633 32.5755L23.946 34.7928C23.2783 35.4608 22.2112 35.4856 21.5137 34.8634C20.8924 34.1671 20.9152 33.0991 21.584 32.4305L23.801 30.2132Z" fill="#0864EE"/>
</g>
<defs>
<clipPath id="clip0_1_95">
<rect width="48" height="48" fill="white" transform="translate(0.3125 0.5)"/>
</clipPath>
</defs>
</svg>
