<svg width="52" height="55" viewBox="0 0 52 55" fill="none" xmlns="http://www.w3.org/2000/svg">
<g clip-path="url(#clip0_1_684)">
<path d="M23.3787 33.8789L17.7929 28.2931C17.4024 27.9026 17.4024 27.2694 17.7929 26.8789L19.3787 25.2931C19.7692 24.9026 20.4024 24.9026 20.7929 25.2931L24.0858 28.586L33.3787 19.2931C33.7692 18.9026 34.4024 18.9026 34.7929 19.2931L36.3787 20.8789C36.7692 21.2694 36.7692 21.9026 36.3787 22.2931L24.7929 33.8789C24.4024 34.2695 23.7692 34.2695 23.3787 33.8789Z" fill="#3483FA"/>
<path fill-rule="evenodd" clip-rule="evenodd" d="M26.2087 1.4126C26.2087 1.4126 19.2087 11.4126 2.20867 8.4126C2.20867 8.4126 -3.79133 37.7676 26.2087 53.5906C56.2087 37.7676 50.2087 8.4126 50.2087 8.4126C33.2087 11.4126 26.2087 1.4126 26.2087 1.4126Z" stroke="#474747" stroke-width="1.413" stroke-linecap="round" stroke-linejoin="round"/>
</g>
<defs>
<clipPath id="clip0_1_684">
<rect width="51" height="55" fill="white" transform="translate(0.5)"/>
</clipPath>
</defs>
</svg>
