<svg width="49" height="49" viewBox="0 0 49 49" fill="none" xmlns="http://www.w3.org/2000/svg">
<g clip-path="url(#clip0_1_75)">
<path fill-rule="evenodd" clip-rule="evenodd" d="M24.6562 48C37.6349 48 48.1562 37.4787 48.1562 24.5C48.1562 11.5213 37.6349 1 24.6562 1C11.6776 1 1.15625 11.5213 1.15625 24.5C1.15625 37.4787 11.6776 48 24.6562 48Z" stroke="#EEEEEE"/>
<path fill-rule="evenodd" clip-rule="evenodd" d="M15.6562 33.5H18.6562V21.5H15.6562V33.5Z" fill="#0864EE"/>
<path fill-rule="evenodd" clip-rule="evenodd" d="M20.6562 33.5H23.6562V21.5H20.6562V33.5Z" fill="#0864EE"/>
<path fill-rule="evenodd" clip-rule="evenodd" d="M25.6562 33.5H28.6562V21.5H25.6562V33.5Z" fill="#0864EE"/>
<path fill-rule="evenodd" clip-rule="evenodd" d="M30.6562 33.5H33.6562V21.5H30.6562V33.5Z" fill="#0864EE"/>
<path fill-rule="evenodd" clip-rule="evenodd" d="M13.6562 35.5H35.6562V32.5H13.6562V35.5Z" fill="#5697FA"/>
<path fill-rule="evenodd" clip-rule="evenodd" d="M25.3022 11.0466L36.1974 20.2656C36.4925 20.5153 36.5293 20.957 36.2796 21.2521C36.1466 21.4093 35.9511 21.5 35.7452 21.5H13.5672C13.1806 21.5 12.8672 21.1866 12.8672 20.8C12.8672 20.5941 12.9579 20.3986 13.115 20.2656L24.0103 11.0466C24.3831 10.7311 24.9293 10.7311 25.3022 11.0466Z" fill="#5697FA"/>
<path fill-rule="evenodd" clip-rule="evenodd" d="M19.8659 18.5H29.476L24.6562 14.4363" fill="#0864EE"/>
</g>
<defs>
<clipPath id="clip0_1_75">
<rect width="48" height="48" fill="white" transform="translate(0.65625 0.5)"/>
</clipPath>
</defs>
</svg>
