<svg width="41" height="14" viewBox="0 0 41 14" fill="none" xmlns="http://www.w3.org/2000/svg">
<path d="M3.54828 0.346069H8.67511L6.1112 4.87583H10.3844L3.54828 13.029L5.25657 7.59387H0.984375L3.54828 0.346069ZM14.8546 9.64656H12.9434L14.5766 2.31485H20.0088L19.6419 3.96363H16.12L15.8761 5.10705H19.3093L18.9424 6.75583H15.4985L14.8546 9.64656ZM24.0917 9.77924C21.8146 9.77924 20.6927 8.70119 20.6927 7.16265C20.6927 7.04168 20.7258 6.789 20.7483 6.67875L21.7258 2.31485H23.6693L22.7034 6.63485C22.6917 6.69046 22.6702 6.81046 22.6702 6.94314C22.681 7.54802 23.1483 8.13046 24.0917 8.13046C25.1141 8.13046 25.6361 7.49241 25.8244 6.63485L26.7912 2.31485H28.7239L27.758 6.66802C27.358 8.44851 26.3805 9.77924 24.0917 9.77924ZM33.9629 9.64656H29.0751L30.7073 2.31485H32.6185L31.3629 7.99778H34.3288L33.9629 9.64656ZM40.478 9.64656H35.5902L37.2234 2.31485H39.1346L37.879 7.99778H40.8449L40.478 9.64656Z" fill="#00A650"/>
</svg>
