<svg width="49" height="49" viewBox="0 0 49 49" fill="none" xmlns="http://www.w3.org/2000/svg">
<g clip-path="url(#clip0_1_118)">
<path fill-rule="evenodd" clip-rule="evenodd" d="M24.9688 48C37.9474 48 48.4688 37.4787 48.4688 24.5C48.4688 11.5213 37.9474 1 24.9688 1C11.9901 1 1.46875 11.5213 1.46875 24.5C1.46875 37.4787 11.9901 48 24.9688 48Z" stroke="#EEEEEE"/>
<path d="M24.9688 36.5C31.5962 36.5 36.9688 31.1274 36.9688 24.5C36.9688 17.8726 31.5962 12.5 24.9688 12.5C18.3413 12.5 12.9688 17.8726 12.9688 24.5C12.9688 31.1274 18.3413 36.5 24.9688 36.5Z" fill="#5697FA"/>
<path d="M25.9688 18.5H23.9688V30.5H25.9688V18.5Z" fill="white"/>
<path d="M30.9688 25.5V23.5L18.9688 23.5V25.5L30.9688 25.5Z" fill="white"/>
</g>
<defs>
<clipPath id="clip0_1_118">
<rect width="48" height="48" fill="white" transform="translate(0.96875 0.5)"/>
</clipPath>
</defs>
</svg>
